PathFileType	4	(X/Y/Z)	21_coords_data.trc
DataRate	CameraRate	NumFrames	NumMarkers	Units	OrigDataRate	OrigDataStartFrame	OrigNumFrames
30.0	30.0	8	21	m	30.0	1	64
Frame#	Time	THUMB_TIP	THUMB_IP	THUMB_MCP	THUMB_CMC	INDEX_TIP	INDEX_DIP	INDEX_PIP	INDEX_MCP	MIDDLE_TIP	MIDDLE_DIP	MIDDLE_PIP	MIDDLE_MCP	RING_TIP	RING_DIP	RING_PIP	RING_MCP	PINKY_TIP	PINKY_DIP	PINKY_PIP	PINKY_MCP	WRIST
X1	Y1	Z1	X2	Y2	Z2	X3	Y3	Z3	X4	Y4	Z4	X5	Y5	Z5	X6	Y6	Z6	X7	Y7	Z7	X8	Y8	Z8	X9	Y9	Z9	X10	Y10	Z10	X11	Y11	Z11	X12	Y12	Z12	X13	Y13	Z13	X14	Y14	Z14	X15	Y15	Z15	X16	Y16	Z16	X17	Y17	Z17	X18	Y18	Z18	X19	Y19	Z19	X20	Y20	Z20	X21	Y21	Z21
0	0.0	-0.03178260040283203	-0.0683560028076172	0.8754180297851563	-0.03768780136108398	-0.04932989883422852	0.8991749877929688	-0.04208810043334961	-0.03176630020141601	0.92522900390625	-0.05182870101928711	-0.00029224801063537604	0.9446829833984375	-0.004328710079193115	0.000566353023052215	0.80385400390625	-0.011665800094604491	-0.001270539999008178	0.8289409790039063	-0.018771600723266602	-0.000989386022090911	0.8488590087890625	-0.036420799255371096	-0.000160970002412796	0.8907039794921875	-0.006136300086975098	0.03599810028076172	0.7957880249023438	-0.01411520004272461	0.03147010040283203	0.8223209838867187	-0.02510129928588867	0.027396900177001953	0.848219970703125	-0.04565610122680664	0.02211520004272461	0.8952219848632812	-0.007383430004119873	0.05655789947509766	0.8098259887695313	-0.015479399681091308	0.05256019973754883	0.8365150146484375	-0.02357670021057129	0.048009700775146484	0.8607540283203124	-0.035996299743652344	0.04145140075683594	0.89527197265625	-0.012725500106811524	0.07835150146484375	0.845093994140625	-0.016555700302124023	0.07187539672851563	0.864010986328125	-0.023394699096679687	0.06616799926757813	0.8797109985351562	-0.03152090072631836	0.058017101287841794	0.9039979858398437	-0.08076709747314453	0.022727800369262696	0.973583984375
1	0.03333333333333333	-0.032328800201416014	-0.06859639739990234	0.8756820068359376	-0.035787700653076175	-0.04960240173339844	0.898302001953125	-0.04276900100708008	-0.03156340026855469	0.9244349975585937	-0.0515531997680664	-0.002504689931869507	0.9474760131835938	-0.005417739868164063	0.0008544769883155821	0.8045020141601562	-0.011213299751281738	-0.000695106983184814	0.8284959716796875	-0.020037200927734374	-0.000985293984413147	0.850135009765625	-0.037265201568603516	0.000375272989273071	0.888364990234375	-0.006320219993591308	0.037411800384521486	0.797510009765625	-0.012883600234985351	0.03172299957275391	0.8226290283203125	-0.02398900032043457	0.027202600479125975	0.8483079833984375	-0.04069409942626953	0.02316189956665039	0.8889979858398438	-0.007654329776763916	0.056766700744628903	0.8112440185546875	-0.014406800270080566	0.05218349838256836	0.8351209716796875	-0.02379520034790039	0.047608798980712894	0.8600640258789063	-0.037445098876953124	0.04098030090332031	0.8962349853515625	-0.013013500213623047	0.07733399963378906	0.8447650146484375	-0.017853599548339844	0.07145339965820313	0.8648720092773438	-0.02383090019226074	0.06588580322265625	0.8813510131835938	-0.03452239990234375	0.05675249862670898	0.9072349853515626	-0.07955560302734375	0.022103599548339844	0.9697239990234375
2	0.06666666666666667	-0.03228219985961914	-0.0687510986328125	0.8759140014648438	-0.035719600677490235	-0.049745498657226564	0.8984739990234375	-0.042690299987792966	-0.031632699966430665	0.9246489868164063	-0.05148820114135742	-0.002640650033950805	0.9476489868164063	-0.005082650184631348	0.000735695004463195	0.8049719848632813	-0.010886199951171875	-0.0008120740056037901	0.8288590087890625	-0.019713699340820314	-0.00112154996395111	0.8504140014648438	-0.03703939819335938	0.00025597900152206403	0.8885700073242188	-0.005667150020599365	0.03765299987792969	0.7981740112304687	-0.012382699966430663	0.03179389953613281	0.8228159790039062	-0.023534200668334962	0.027232799530029297	0.8485380249023438	-0.040529998779296875	0.023023500442504882	0.88918701171875	-0.006861680030822754	0.05679190063476563	0.811697021484375	-0.013824899673461915	0.05213869857788086	0.8356129760742188	-0.023493499755859376	0.04751340103149414	0.86039599609375	-0.0371531982421875	0.040874401092529294	0.8964539794921875	-0.0125733003616333	0.07711370086669922	0.845302001953125	-0.017561100006103517	0.07122440338134765	0.8652960205078125	-0.023328399658203124	0.0656720962524414	0.881635009765625	-0.03422900009155273	0.05662220001220703	0.9075900268554687	-0.07958689880371093	0.02208329963684082	0.9699660034179688
3	0.1	-0.032053600311279296	-0.06885780334472656	0.8762349853515625	-0.035537899017333986	-0.04986740112304688	0.8987990112304688	-0.04251649856567383	-0.031681999206542966	0.9250159912109375	-0.051283599853515625	-0.002700040102005005	0.9478250122070313	-0.005218150138854981	0.000515412986278533	0.8049959716796875	-0.010954299926757812	-0.001019250035285949	0.828968994140625	-0.019733200073242186	-0.0012941199541091919	0.8505360107421875	-0.037086200714111325	0.00011772300302982301	0.888780029296875	-0.005821680068969728	0.037442401885986326	0.7979219970703125	-0.012459600448608398	0.031619199752807615	0.8229149780273437	-0.02357740020751953	0.02707349967956543	0.8487440185546875	-0.04049739837646484	0.022974199295043945	0.8894190063476562	-0.007026509761810303	0.05659880065917969	0.8117470092773438	-0.01392240047454834	0.05209540176391601	0.8356599731445312	-0.02348200035095215	0.047415298461914064	0.8604169921875	-0.037201698303222654	0.04077310180664063	0.8965880126953125	-0.012740099906921386	0.07702529907226563	0.845093017578125	-0.017581100463867187	0.07118389892578125	0.8651339721679687	-0.023554300308227537	0.06563980102539063	0.8816300048828125	-0.034280399322509765	0.05653739929199219	0.9077000122070312	-0.07933460235595703	0.022071699142456054	0.9700130004882812
4	0.13333333333333333	-0.03197080039978027	-0.06895069885253906	0.87656201171875	-0.03546329879760742	-0.049935901641845706	0.89897802734375	-0.042507499694824216	-0.03177429962158203	0.9251749877929687	-0.051295299530029294	-0.002767469882965088	0.94793701171875	-0.004911009788513184	0.00039684298634529104	0.8053930053710937	-0.010773300170898437	-0.001104429960250854	0.8291619873046875	-0.01955389976501465	-0.0013841999769210812	0.8507579956054687	-0.03695159912109375	5.9560701251029005e-05	0.889010986328125	-0.005608650207519531	0.037299598693847656	0.798448974609375	-0.012368000030517579	0.03145389938354492	0.8228699951171875	-0.02344700050354004	0.026947900772094725	0.8488759765625	-0.04048720169067383	0.022846200942993163	0.889552001953125	-0.006656079769134521	0.056483001708984376	0.811968017578125	-0.01372010040283203	0.051925300598144535	0.8359099731445313	-0.02337070083618164	0.04732410049438476	0.8606589965820313	-0.03719950103759766	0.040693801879882814	0.8967750244140625	-0.01259000015258789	0.07701219940185547	0.8453319702148437	-0.01749340057373047	0.0711250991821289	0.8654249877929687	-0.023475299835205077	0.0655282974243164	0.8819669799804688	-0.03425849914550781	0.05648109817504883	0.907968017578125	-0.07935780334472656	0.021871700286865234	0.9700280151367188
5	0.16666666666666666	-0.031858499526977536	-0.06904340362548828	0.8768679809570312	-0.03543579864501953	-0.05000979995727539	0.8992210083007812	-0.042473499298095706	-0.031807300567626956	0.9254359741210938	-0.05129690170288086	-0.002788949966430664	0.9481680297851562	-0.004407999992370605	0.00033145201206207203	0.8055250244140625	-0.01036769962310791	-0.001139469981193542	0.8294429931640624	-0.019253799438476563	-0.0013997299671173091	0.8510159912109375	-0.0367218017578125	2.3688999935984e-05	0.88914697265625	-0.005326700210571289	0.03722800064086914	0.7987579956054688	-0.011995400428771973	0.0313843994140625	0.8232789916992187	-0.023192499160766603	0.02690060043334961	0.849083984375	-0.04011040115356445	0.022795000076293946	0.8896580200195312	-0.006424510002136231	0.05644189834594727	0.81231201171875	-0.013377400398254394	0.05191600036621094	0.8362940063476563	-0.023104799270629882	0.047297798156738284	0.8609459838867187	-0.03699489974975586	0.040617801666259765	0.8970029907226562	-0.012271400451660155	0.07691889953613282	0.8457329711914062	-0.017272499084472655	0.07102940368652344	0.865843017578125	-0.023375699996948242	0.06539170074462891	0.8823629760742188	-0.03430229949951172	0.05633560180664063	0.9084450073242187	-0.07943419647216797	0.021818599700927734	0.9703499755859375
6	0.2	-0.031675699234008786	-0.06912470245361328	0.8771099853515625	-0.03529800033569336	-0.05006869888305664	0.8994500122070312	-0.04238819885253906	-0.03198019981384277	0.9254970092773438	-0.051167800903320314	-0.002815069913864135	0.9483469848632813	-0.004619180202484131	0.00029424101114273007	0.8058369750976563	-0.010526000022888183	-0.0011873699426651	0.8295330200195312	-0.01928529930114746	-0.00146379005908966	0.85118798828125	-0.03674380111694336	-5.1652200520038e-05	0.8893729858398437	-0.005479159832000732	0.03696749877929688	0.79843701171875	-0.012180000305175782	0.031278999328613284	0.8232529907226562	-0.02334390068054199	0.026785600662231446	0.849281982421875	-0.04032059860229492	0.022694599151611327	0.889885009765625	-0.006449389934539795	0.05635490036010742	0.8125170288085938	-0.013487500190734863	0.051905799865722656	0.8363660278320313	-0.02320680046081543	0.047223800659179686	0.8610980224609375	-0.03701079940795898	0.04059270095825195	0.897156982421875	-0.012462900161743165	0.0767927017211914	0.8459310302734375	-0.017546499252319336	0.07092870330810547	0.8659000244140626	-0.023471500396728514	0.06532520294189453	0.88243798828125	-0.03416450119018555	0.05635010147094727	0.9083579711914063	-0.07943129730224609	0.02175670051574707	0.9704630126953125
7	0.23333333333333334	-0.031695899963378904	-0.06910220336914062	0.8772069702148437	-0.03538299942016602	-0.05003730010986328	0.8995759887695313	-0.04254119873046875	-0.031948699951171874	0.9256409912109375	-0.0513406982421875	-0.002797260046005249	0.9485089721679687	-0.0047885398864746095	0.0004030970036983491	0.8059080200195312	-0.010669599533081055	-0.001124680042266845	0.8296610107421875	-0.019487600326538086	-0.0014210900068283082	0.851260009765625	-0.036970199584960936	-1.6143100336194002e-05	0.8895269775390625	-0.005464809894561768	0.036939098358154294	0.798593017578125	-0.01225100040435791	0.03127540016174316	0.8233989868164062	-0.023454900741577148	0.026789600372314454	0.849406005859375	-0.0405161018371582	0.022786699295043945	0.8901229858398437	-0.006401000022888184	0.056379600524902346	0.8126190185546875	-0.01350529956817627	0.05190179824829102	0.8364840087890625	-0.023329700469970703	0.04724190139770508	0.861281982421875	-0.037249298095703126	0.04060770034790039	0.897302001953125	-0.012357199668884277	0.07671990203857422	0.845927001953125	-0.017465999603271484	0.07089089965820312	0.8661749877929688	-0.02338960075378418	0.06540229797363281	0.8825570068359375	-0.034409500122070315	0.05636700057983399	0.908427978515625	-0.07956939697265625	0.021853900909423827	0.9706439819335938
